# xmcd CD database file
#
# Track frame offsets:
#	150
#	15423
#	26386
#	58625
#	70843
#	84288
#	96457
#	109897
#	122290
#	134361
#	149127
#	163020
#	177967
#	203175
#	243317
#	254776
#	267130
#	280098
#	304300
#	316163
#
# Disc length: 4393 seconds
#
# Revision: 2
# Processed by: cddbd v1.5.2PL0 Copyright (c) Steve Scherf et al.
# Submitted via: CDex 1.70beta2
#
DISCID=1e112714
DTITLE=Various Artist - The Roots Of Afro-Cuban Jazz 1 Manteca
DYEAR=2003
DGENRE=Jazz
TTITLE0=Woody Herman and His Orchestra - Bijou (Rhumba A La Jazz)
TTITLE1=Stan Kenton and His Orchestra - Machito
TTITLE2=Dizzy Gillespie and His Orchestra - Cubana Be Cubano Bop (live)
TTITLE3=Stan Kenton and His Orchestra - Cuban Carnival
TTITLE4=Stan Kenton and His Orchestra - Journey To Brazil
TTITLE5=Stan Kenton and His Orchestra - The Peanut Vendor
TTITLE6=Dizzy Gillespie and His Orchestra - Algo Bueno (Woody N You)
TTITLE7=Dizzy Gillespie and His Orchestra - Cool Breeze
TTITLE8=Dizzy Gillespie and His Orchestra - Cubana Be
TTITLE9=Dizzy Gillespie and His Orchestra - Cubana Bop
TTITLE10=Dizzy Gillespie and His Orchestra - Manteca
TTITLE11=Dizzy Gillespie and His Orchestra - Guarachi Guaro (live)
TTITLE12=Dizzy Gillespie and His Orchestra - Taboo (live)
TTITLE13=Dizzy Gillespie and His Orchestra - Manteca (live)
TTITLE14=James Moody and The Modernists - Cu-Ba
TTITLE15=James Moody and The Modernists - Tin Tin Deo
TTITLE16=Tadd Dameron Orchestra - Jahbero
TTITLE17=Howard McGhee and His Afro Cuboppers feat. Machito and His Afro Cuban Orchestra plus Brew Moore/ Cubop City Pts 1 and 2 (Studio Version)
TTITLE18=The Milt Jackson Quintet - Baggy Blues
TTITLE19=Machito and His Afro-Cuban Orchestra - Gone City
EXTD=YEAR: 2003
EXTT0=
EXTT1=
EXTT2=
EXTT3=
EXTT4=
EXTT5=
EXTT6=
EXTT7=
EXTT8=
EXTT9=
EXTT10=
EXTT11=
EXTT12=
EXTT13=
EXTT14=
EXTT15=
EXTT16=
EXTT17=
EXTT18=
EXTT19=
PLAYORDER=
